HIERARCHY
ROOT Hips
{
	OFFSET 0.00000 0.00000 0.00000
	CHANNELS 6 Xposition Yposition Zposition Yrotation Zrotation Xrotation 
	JOINT Lumbar
	{
		OFFSET 0 0 0
		CHANNELS 3 Zrotation Xrotation Yrotation
		JOINT Neck
		{
			OFFSET 0.00 0.2701 0.00
			CHANNELS 3 Zrotation Xrotation Yrotation
			End Site
			{
				OFFSET 0.00 0.1379 0.00
			}
		}
		JOINT RightShoulder
		{
			OFFSET 0.0119 0.2289 0.1181
			CHANNELS 3 Zrotation Xrotation Yrotation
			JOINT RightElbow
			{
				OFFSET 0.00 -0.1475 0.00
				CHANNELS 2 Zrotation Yrotation
				JOINT RightWrist
				{
					OFFSET 0.00 -0.1605 0.00
					CHANNELS 2 Zrotation Xrotation
					End Site
					{
						OFFSET 0.0040 -0.1068 0.0006
					}
				}
			}
		}
		JOINT LeftShoulder
		{
			OFFSET 0.0119 0.2289 -0.1181
			CHANNELS 3 Zrotation Xrotation Yrotation
			JOINT LeftElbow
			{
				OFFSET 0.00 -0.1475 0.00
				CHANNELS 2 Zrotation Yrotation
				JOINT LeftWrist
				{
					OFFSET 0.00 -0.1605 0.00
					CHANNELS 2 Zrotation Xrotation
					End Site
					{
						OFFSET 0.0040 -0.1068 -0.0006
					}
				}
			}
		}
	}
	JOINT RightHip
	{
		OFFSET 0.0316 -0.0424 0.0458
		CHANNELS 3 Zrotation Xrotation Yrotation
		JOINT RightKnee
		{
			OFFSET 0.00 -0.2438 0.00
			CHANNELS 1 Zrotation
			JOINT RightAnkle
			{
				OFFSET 0.00 -0.2449 0.00
				CHANNELS 3 Zrotation Xrotation Yrotation
				End Site
				{
					OFFSET 0.1237 -0.0542 0.0051
				}
			}
		}
	}
	JOINT LeftHip
	{
		OFFSET 0.0316 -0.0424 -0.0458
		CHANNELS 3 Zrotation Xrotation Yrotation
		JOINT LeftKnee
		{
			OFFSET 0.00 -0.2438 0.00
			CHANNELS 1 Zrotation
			JOINT LeftAnkle
			{
				OFFSET 0.00 -0.2449 0.00
				CHANNELS 3 Zrotation Xrotation Yrotation
				End Site
				{
					OFFSET 0.1237 -0.0542 -0.0051
				}
			}
		}
	}
}
MOTION
Frames: 31
Frame Time: 0.02
3e-05 3e-05 -0.0001 22.10716 -29.02145 -6.83406 47.8387 3.08678 -1.84647 -10.90443 -2.07178 -1.50573 70.95284 -101.3374 55.63336 5.78747 95.87228 11.56682 0.21471 44.48851 101.01129 -55.63404 6.43641 -91.31795 10.01728 0.32875 44.78684 -6.11325 -6.3686 -22.01428 -6.89919 -2.29978 -3.34975 48.84616 9.32161 3.61277 -27.14831 -6.92117 1.92721 3.17453
6e-05 2e-05 -8e-05 22.12836 -29.02191 -6.84166 47.82791 3.07847 -1.84678 -10.90194 -2.07564 -1.50605 71.233 -101.32308 55.63344 5.78742 95.89016 11.55734 0.26217 44.61114 100.99554 -55.63404 6.42752 -91.36788 10.02024 0.31556 44.77347 -6.13995 -6.54713 -22.01657 -6.89678 -2.28606 -3.34427 48.84843 9.33151 3.62353 -27.15142 -6.92043 1.91944 3.17243
0.0001 2e-05 -7e-05 22.1495 -29.0224 -6.84924 47.81717 3.07019 -1.84706 -10.89948 -2.07951 -1.50636 71.51223 -101.30883 55.63351 5.78736 95.90799 11.54788 0.30948 44.7335 100.9798 -55.63404 6.41864 -91.41765 10.02318 0.3024 44.76015 -6.16655 -6.72511 -22.01885 -6.89438 -2.27238 -3.3388 48.85072 9.34141 3.63436 -27.15452 -6.9197 1.91169 3.17033
0.00013 2e-05 -5e-05 22.17063 -29.02287 -6.85682 47.80642 3.06191 -1.84737 -10.897 -2.08337 -1.50668 71.79152 -101.29456 55.63359 5.78731 95.92582 11.53842 0.35679 44.85576 100.96409 -55.63404 6.40978 -91.46743 10.02613 0.28925 44.74682 -6.19316 -6.9031 -22.02113 -6.89198 -2.2587 -3.33334 48.85298 9.35129 3.64512 -27.15761 -6.91897 1.90395 3.16823
0.00017 1e-05 -4e-05 22.1918 -29.02329 -6.86441 47.79561 3.05362 -1.84772 -10.89449 -2.08722 -1.50699 72.07175 -101.28021 55.63366 5.78725 95.94371 11.52893 0.40426 44.97825 100.94838 -55.63405 6.40091 -91.51736 10.0291 0.27608 44.73343 -6.21986 -7.08163 -22.02343 -6.88957 -2.24497 -3.32786 48.85522 9.36114 3.65571 -27.16072 -6.91823 1.8962 3.16614
0.0002 1e-05 -2e-05 22.2129 -29.0239 -6.87197 47.78504 3.04536 -1.84785 -10.89212 -2.09113 -1.5073 72.34884 -101.26615 55.63373 5.7872 95.96141 11.51955 0.45122 45.10036 100.93257 -55.63404 6.39202 -91.5668 10.03201 0.26293 44.72028 -6.24626 -7.25844 -22.02568 -6.88718 -2.23138 -3.32242 48.85762 9.37112 3.667 -27.16379 -6.91751 1.88844 3.16402
0.00024 1e-05 -0 22.23411 -29.02415 -6.87959 47.774 3.03705 -1.84842 -10.88947 -2.09492 -1.50761 72.63198 -101.25154 55.63381 5.78715 95.97948 11.50996 0.49917 45.22303 100.91698 -55.63405 6.38319 -91.61717 10.03501 0.24976 44.70665 -6.27323 -7.43853 -22.02803 -6.88476 -2.21754 -3.3169 48.85969 9.38087 3.67703 -27.16693 -6.91676 1.8807 3.16196
0.00027 1e-05 1e-05 22.25522 -29.02472 -6.88715 47.76337 3.02878 -1.84859 -10.88708 -2.09882 -1.50793 72.90949 -101.23742 55.63389 5.78709 95.99721 11.50055 0.54618 45.34533 100.90118 -55.63405 6.37429 -91.6667 10.03796 0.2366 44.69345 -6.29967 -7.61557 -22.03028 -6.88237 -2.20392 -3.31146 48.86206 9.39077 3.68796 -27.17001 -6.91603 1.87296 3.15985
0.00031 0 3e-05 22.2762 -29.02573 -6.89464 47.75332 3.02057 -1.84825 -10.88498 -2.10286 -1.50825 73.18042 -101.22397 55.63395 5.78705 96.01451 11.49139 0.59214 45.46667 100.88516 -55.63403 6.36534 -91.71514 10.04075 0.22347 44.68082 -6.3255 -7.78903 -22.03242 -6.88002 -2.19057 -3.30612 48.86483 9.4011 3.70103 -27.17299 -6.91534 1.86515 3.15765
0.00034 -0 5e-05 22.29793 -29.02437 -6.90253 47.74018 3.01203 -1.85077 -10.88112 -2.10609 -1.50853 73.49012 -101.2069 55.63406 5.78697 96.03422 11.48088 0.64444 45.59198 100.8705 -55.63408 6.35678 -91.76965 10.04414 0.21023 44.66509 -6.35496 -7.98354 -22.03521 -6.87743 -2.1757 -3.30018 48.86539 9.40969 3.7049 -27.17648 -6.91447 1.85751 3.15587
0.00038 -0 6e-05 22.31807 -29.02788 -6.90958 47.73341 3.00419 -1.84729 -10.88107 -2.11103 -1.5089 73.71742 -101.19731 55.63407 5.78696 96.04888 11.47319 0.6832 45.70989 100.85292 -55.634 6.34735 -91.81151 10.04647 0.19719 44.65578 -6.3767 -8.13337 -22.03666 -6.87534 -2.16403 -3.29552 48.87053 9.4215 3.72621 -27.17892 -6.91396 1.84968 3.15329
0.00041 0 7e-05 22.33385 -29.04588 -6.91432 47.74544 2.99818 -1.82702 -10.89087 -2.12081 -1.50951 73.72167 -101.20961 55.63378 5.78714 96.04942 11.4733 0.6857 45.79954 100.82759 -55.63349 6.33583 -91.81714 10.04409 0.18499 44.66508 -6.37756 -8.16174 -22.03406 -6.87469 -2.16127 -3.29437 48.88914 9.44619 3.81276 -27.17829 -6.91451 1.83999 3.14761
0.00044 1e-05 8e-05 22.34804 -29.06857 -6.91822 47.76365 2.99289 -1.80078 -10.9046 -2.13229 -1.51021 73.64284 -101.22916 55.63339 5.78739 96.04497 11.4762 0.67447 45.88325 100.79926 -55.63285 6.32338 -91.81036 10.04092 0.17293 44.68064 -6.37063 -8.14511 -22.03016 -6.87452 -2.1617 -3.2945 48.91219 9.47348 3.91406 -27.17663 -6.91541 1.83034 3.14127
0.00047 1e-05 9e-05 22.36291 -29.08834 -6.92251 47.77814 2.98735 -1.77749 -10.91693 -2.14291 -1.51086 73.59974 -101.24448 55.63306 5.7876 96.04297 11.47782 0.6689 45.97485 100.77216 -55.63229 6.31113 -91.81022 10.03931 0.16062 44.69268 -6.36707 -8.14823 -22.0271 -6.87408 -2.16058 -3.29403 48.9326 9.49678 3.99667 -27.17556 -6.9161 1.8216 3.13586
0.0005 2e-05 0.0001 22.37789 -29.11138 -6.92676 47.79639 2.98154 -1.75318 -10.92766 -2.15391 -1.51153 73.56408 -101.26376 55.63268 5.78785 96.0401 11.47962 0.66566 46.04448 100.74569 -55.63164 6.29975 -91.80577 10.03281 0.14912 44.70758 -6.36418 -8.15393 -22.02304 -6.87386 -2.15988 -3.29366 48.95563 9.53147 4.12801 -27.174 -6.917 1.80905 3.1279
0.00053 2e-05 0.00011 22.39235 -29.12879 -6.93089 47.80837 2.97641 -1.7296 -10.94264 -2.16449 -1.51217 73.49441 -101.27651 55.63237 5.78804 96.03796 11.48152 0.65443 46.15854 100.71709 -55.63114 6.28641 -91.80745 10.03608 0.13594 44.71801 -6.3581 -8.14395 -22.02072 -6.87331 -2.15911 -3.29339 48.97427 9.54364 4.16372 -27.17319 -6.91755 1.8043 3.12496
0.00055 2e-05 0.00012 22.405 -29.12894 -6.93478 47.80083 2.97336 -1.70915 -10.96836 -2.1737 -1.51268 73.34124 -101.2695 55.63232 5.78809 96.03801 11.48446 0.62341 46.39621 100.68432 -55.63105 6.26763 -91.8284 10.06837 0.11844 44.7144 -6.34465 -8.09865 -22.0236 -6.87171 -2.15693 -3.29288 48.97945 9.48789 3.91077 -27.17479 -6.91705 1.82248 3.13708
0.00058 2e-05 0.00014 22.41731 -29.12338 -6.93859 47.7869 2.97092 -1.68965 -10.9982 -2.1824 -1.51315 73.15855 -101.25567 55.63235 5.78809 96.03908 11.48709 0.58491 46.67908 100.64933 -55.63111 6.24709 -91.85606 10.10998 0.09924 44.70609 -6.32834 -8.0397 -22.02827 -6.86976 -2.15464 -3.29246 48.98011 9.41022 3.56454 -27.17716 -6.9162 1.8483 3.15409
0.00061 2e-05 0.00015 22.43029 -29.1208 -6.94252 47.77635 2.96795 -1.66997 -11.02616 -2.19123 -1.51364 72.99594 -101.24493 55.63235 5.78808 96.04046 11.48895 0.55076 46.94132 100.61467 -55.63111 6.22731 -91.88114 10.14638 0.08054 44.70003 -6.31362 -7.98895 -22.03206 -6.868 -2.1527 -3.29215 48.98301 9.34607 3.27532 -27.1791 -6.91553 1.86968 3.16815
0.00063 2e-05 0.00016 22.4411 -29.11675 -6.9461 47.764 2.96606 -1.64919 -11.0543 -2.20058 -1.51412 72.80243 -101.23444 55.63232 5.78812 96.03872 11.49491 0.51269 47.20289 100.5827 -55.63111 6.20708 -91.90392 10.18772 0.06281 44.69374 -6.29736 -7.92812 -22.03605 -6.86616 -2.14967 -3.29131 48.9853 9.26745 2.92671 -27.18132 -6.91479 1.89501 3.18516
0.00066 2e-05 0.00018 22.45628 -29.11434 -6.95038 47.75381 2.9621 -1.63081 -11.083 -2.20868 -1.51462 72.66717 -101.22176 55.63238 5.78816 96.04337 11.49205 0.48047 47.4777 100.54472 -55.63113 6.18815 -91.9331 10.21995 0.04288 44.68672 -6.28377 -7.88572 -22.04008 -6.86439 -2.1488 -3.29153 48.98772 9.21316 2.67716 -27.18316 -6.91411 1.91408 3.19731
0.00071 2e-05 0.00021 22.48444 -29.11785 -6.95672 47.75104 2.95168 -1.62059 -11.11207 -2.21348 -1.51517 72.70221 -101.20417 55.63267 5.78776 96.06843 11.46608 0.47185 47.76992 100.49024 -55.63113 6.16697 -91.97957 10.23356 0.01544 44.6787 -6.27807 -7.89698 -22.04381 -6.86294 -2.15426 -3.29484 48.99153 9.23641 2.74462 -27.18371 -6.91369 1.91278 3.1939
0.00077 2e-05 0.00024 22.51685 -29.12317 -6.96374 47.75067 2.93925 -1.61247 -11.14159 -2.21702 -1.51574 72.79702 -101.1846 55.63305 5.78785 96.09892 11.43086 0.46813 48.07595 100.42992 -55.63112 6.14863 -92.03201 10.23591 -0.01375 44.6701 -6.2752 -7.92748 -22.04751 -6.86155 -2.16184 -3.29916 48.9956 9.28414 2.91174 -27.18387 -6.91335 1.90511 3.18558
0.00083 2e-05 0.00027 22.54678 -29.12762 -6.97038 47.74921 2.9281 -1.60224 -11.17093 -2.22112 -1.5163 72.86327 -101.16635 55.63339 5.78748 96.12554 11.39927 0.45886 48.38032 100.37256 -55.6312 6.13277 -92.08101 10.23777 -0.04103 44.66183 -6.27122 -7.94993 -22.0512 -6.86011 -2.1682 -3.30286 48.99961 9.31716 3.01872 -27.18426 -6.91296 1.90125 3.18014
0.00088 2e-05 0.0003 22.57906 -29.1321 -6.97737 47.74747 2.91542 -1.59685 -11.20015 -2.2253 -1.51686 72.93383 -101.14642 55.63376 5.78639 96.1599 11.37071 0.46439 48.66464 100.31373 -55.6311 6.09974 -92.13351 10.26413 -0.07336 44.65312 -6.26647 -7.9694 -22.05505 -6.85876 -2.17561 -3.30723 49.00334 9.36383 3.18233 -27.18445 -6.91262 1.89401 3.17224
0.00094 2e-05 0.00032 22.6074 -29.13697 -6.98375 47.74703 2.90545 -1.58195 -11.22989 -2.22896 -1.51744 73.01063 -101.12918 55.63407 5.78908 96.17717 11.33285 0.43906 48.9961 100.2567 -55.63113 6.10464 -92.17978 10.23606 -0.09523 44.64522 -6.26394 -7.99927 -22.05857 -6.85723 -2.18136 -3.31046 49.00765 9.38904 3.2564 -27.18494 -6.91218 1.89193 3.16809
0.00101 2e-05 0.00034 22.62426 -29.14298 -6.98869 47.74904 2.90352 -1.53961 -11.25921 -2.23184 -1.51805 73.08474 -101.12329 55.63413 5.7842 96.16244 11.27844 0.3387 49.43119 100.20479 -55.63153 6.20171 -92.21144 10.06605 -0.09044 44.63988 -6.2678 -8.05828 -22.0609 -6.85533 -2.18183 -3.31015 49.01461 9.34166 3.02843 -27.18647 -6.91152 1.9079 3.17689
0.00108 2e-05 0.00035 22.6369 -29.14924 -6.9929 47.75241 2.90435 -1.48775 -11.2894 -2.23416 -1.51868 73.16404 -101.11937 55.63407 5.7869 96.12536 11.21377 0.20529 49.91739 100.15483 -55.63059 6.3394 -92.23699 9.84098 -0.07438 44.63537 -6.27365 -8.12628 -22.06296 -6.85321 -2.18059 -3.30869 49.02197 9.27323 2.71267 -27.18829 -6.91074 1.92884 3.18936
0.00115 2e-05 0.00037 22.65121 -29.1551 -6.99717 47.75551 2.90388 -1.44071 -11.32025 -2.2365 -1.5193 73.24481 -101.11263 55.63415 5.79732 96.09006 11.14918 0.07924 50.39506 100.10519 -55.6321 6.46595 -92.26114 9.6369 -0.06203 44.63035 -6.27795 -8.18679 -22.0653 -6.8511 -2.18027 -3.30789 49.02843 9.21948 2.45804 -27.18989 -6.90995 1.94595 3.19917
0.00122 2e-05 0.00038 22.66678 -29.16224 -7.00264 47.75716 2.90359 -1.39168 -11.34646 -2.23978 -1.51991 73.31216 -101.11484 55.63406 5.75879 96.09802 11.1033 -0.01542 50.81097 100.05147 -55.63183 6.56049 -92.29835 9.44777 -0.05656 44.62578 -6.28501 -8.26203 -22.06693 -6.84939 -2.17943 -3.30658 49.03789 9.14535 2.11883 -27.19186 -6.90943 1.9694 3.21292
0.00129 3e-05 0.0004 22.67857 -29.1667 -7.00539 47.76222 2.90356 -1.34448 -11.38282 -2.24098 -1.52056 73.40706 -101.09779 55.63406 5.82632 96.00084 11.01655 -0.182 51.36775 100.00528 -55.62746 6.7328 -92.31283 9.21668 -0.03298 44.62055 -6.28683 -8.30885 -22.07006 -6.84678 -2.17923 -3.30601 49.04122 9.10788 1.93157 -27.19315 -6.90831 1.98102 3.21951
